# xmcd
#
# Track frame offsets:
#	183
#	11850
#	25528
#	43105
#	58410
#	73288
#	84795
#	102835
#	125355
#	141348
#	157760
#	177768
#	193343
#
# Disc length: 2733 seconds
#
# Revision: 1
# Processed by: cddbd v1.5.1PL0 Copyright (c) Steve Scherf et al.
# Submitted via: audiograbber 1.80
#
DISCID=b00aab0d
DTITLE=Veteran Western - Veteran Western
DYEAR=1900
DGENRE=
TTITLE0=Sbohem ti davam Louisiano
TTITLE1=Toulava
TTITLE2=Pirati parku
TTITLE3=Titanic
TTITLE4=Nech me snit
TTITLE5=Pozdravuj svou mati
TTITLE6=Pisen pro houpaciho kone
TTITLE7=Klin-klan-klin
TTITLE8=Podzimni vitr
TTITLE9=Strazce majaku
TTITLE10=Ruze z Cimmaronu
TTITLE11=Pratelstvi
TTITLE12=Jen si parde pripij
EXTD=
EXTT0=
EXTT1=
EXTT2=
EXTT3=
EXTT4=
EXTT5=
EXTT6=
EXTT7=
EXTT8=
EXTT9=
EXTT10=
EXTT11=
EXTT12=
PLAYORDER=
